<?xml version="1.0" encoding="utf-8"?>
<!-- Generator: Adobe Illustrator 23.0.5, SVG Export Plug-In . SVG Version: 6.00 Build 0)  -->
<svg version="1.1" id="圖層_1" xmlns="http://www.w3.org/2000/svg" xmlns:xlink="http://www.w3.org/1999/xlink" x="0px" y="0px"
	 viewBox="0 0 16 16" style="enable-background:new 0 0 16 16;" xml:space="preserve">
<style type="text/css">
	.st0{fill-rule:evenodd;clip-rule:evenodd;fill:#A06DAC;}
	.st1{fill-rule:evenodd;clip-rule:evenodd;fill:#BECF32;}
	.st2{fill-rule:evenodd;clip-rule:evenodd;fill:#54B097;}
</style>
<g>
	<g>
		<g>
			<path class="st0" d="M15,1.9c0.3,1.9-1.3,2.9-2.7,3.6c0.9,2.3-7.8,0.4-8.2-1.4C8.1,5,12.7,3.9,15,1.9z"/>
			<path class="st0" d="M10.9,2.4c0,0.7-0.6,1.4-1.4,1.4c-0.7,0-1.4-0.6-1.4-1.4S8.7,1,9.5,1C10.3,1,10.9,1.6,10.9,2.4z"/>
		</g>
		<path class="st0" d="M12.3,7.2c0.4,2.2,0.5,5-0.4,7.8c-0.7-1.5-0.5-3.5-1.3-4.9c-2.1,0.5-6,0.3-6.3-2.1C5.9,8.8,8.6,9.5,9,7.3
			C7.6,6.5,13.6,6.8,12.3,7.2z"/>
		<path class="st1" d="M5.9,12.8C4.1,12,3,10.1,3.1,8.2c0-0.3,0.8-2.6-0.1-2.3C0.6,6.7,3.3,13.2,5.9,12.8z"/>
		<path class="st2" d="M9,14c-2.2-0.4-4.9-0.4-6.4-3.1c-0.2-0.4-0.5-2.2-1.4-1.7C0.8,9.5,1.1,10.5,1.4,11C3,14.2,6.4,14.8,9,14z"/>
	</g>
</g>
</svg>
